<?xml version="1.0" encoding="iso-8859-1"?>
<!-- Generator: Adobe Illustrator 18.0.0, SVG Export Plug-In . SVG Version: 6.00 Build 0)  -->
<!DOCTYPE svg PUBLIC "-//W3C//DTD SVG 1.1//EN" "http://www.w3.org/Graphics/SVG/1.1/DTD/svg11.dtd">
<svg version="1.1" id="Capa_1" xmlns="http://www.w3.org/2000/svg" xmlns:xlink="http://www.w3.org/1999/xlink" x="0px" y="0px"
	 viewBox="0 0 446.695 446.695" style="enable-background:new 0 0 446.695 446.695;" xml:space="preserve">
<g>
	<g>
		<path style="fill:#41996B;" d="M309.485,220.67l42.37,21.817c28.857,14.858,63.991-1.39,71.357-33l23.482-100.766l-122.667,49.546
			L309.485,220.67z"/>
		<path style="fill:#41996B;" d="M137.21,220.67l-42.37,21.817c-28.857,14.858-63.991-1.39-71.357-33L0,108.72l122.667,49.546
			L137.21,220.67z"/>
	</g>
	<path style="fill:#56BF8D;" d="M386.404,195.761v55.172c0,27.535-6.823,53.489-18.888,76.244
		c-27.368,51.639-81.654,86.819-144.163,86.819c-62.509,0-116.808-35.18-144.175-86.819c-12.052-22.755-18.888-48.709-18.888-76.244
		v-55.172c0-4.561,0.193-9.071,0.552-13.53c6.72-81.834,73.867-146.553,156.729-149.431c1.927-0.064,3.855-0.103,5.782-0.103
		s3.855,0.039,5.782,0.103c42.722,1.491,81.268,19.427,109.51,47.656c26.52,26.52,43.955,62.149,47.206,101.775
		C386.211,186.69,386.404,191.2,386.404,195.761z"/>
	<g>
		<path style="fill:#FFFFFF;" d="M143.063,276.15c-18.11,0-32.845-14.734-32.845-32.845s14.734-32.845,32.845-32.845
			s32.845,14.734,32.845,32.845S161.173,276.15,143.063,276.15z"/>
		<path style="fill:#FFFFFF;" d="M303.637,276.15c-18.11,0-32.845-14.734-32.845-32.845s14.734-32.845,32.845-32.845
			c18.11,0,32.845,14.734,32.845,32.845S321.747,276.15,303.637,276.15z"/>
		<path style="fill:#91643A;" d="M154.303,243.305c-6.208,0-11.24-5.032-11.24-11.24c0-3.879,1.965-7.299,4.954-9.319
			c-1.592-0.383-3.245-0.607-4.954-0.607c-11.69,0-21.167,9.476-21.167,21.166c0,11.69,9.477,21.166,21.167,21.166
			c11.69,0,21.167-9.476,21.167-21.166c0-1.709-0.225-3.362-0.607-4.954C161.603,241.34,158.183,243.305,154.303,243.305z"/>
		<path style="fill:#91643A;" d="M314.877,243.305c-6.208,0-11.24-5.032-11.24-11.24c0-3.879,1.965-7.299,4.954-9.319
			c-1.592-0.383-3.245-0.607-4.954-0.607c-11.69,0-21.167,9.476-21.167,21.166c0,11.69,9.477,21.166,21.167,21.166
			s21.167-9.476,21.167-21.166c0-1.709-0.225-3.362-0.607-4.954C322.176,241.34,318.756,243.305,314.877,243.305z"/>
	</g>
	<polygon style="fill:#41996B;" points="201.086,269.582 223.348,249.417 245.61,269.582 	"/>
	<g>
		<path style="fill:#41996B;" d="M192.586,197.311l-77.978-26.097c-10.605-3.549-22.079,2.171-25.629,12.776l-2.388,7.137
			c-3.549,10.605,2.171,22.079,12.776,25.629l77.978,26.097c10.605,3.549,22.079-2.171,25.629-12.776l2.388-7.137
			C208.911,212.335,203.191,200.86,192.586,197.311z"/>
		<path style="fill:#41996B;" d="M254.109,197.311l77.978-26.097c10.605-3.549,22.079,2.171,25.629,12.776l2.388,7.137
			c3.549,10.605-2.171,22.079-12.776,25.629l-77.978,26.097c-10.605,3.549-22.079-2.171-25.629-12.776l-2.388-7.137
			C237.784,212.335,243.504,200.86,254.109,197.311z"/>
	</g>
	<path style="fill:#4D4D4D;" d="M274.04,278.477v15.119c0,13.175-5.04,25.187-13.281,34.199
		c-6.522,7.139-15.06,12.404-24.712,14.882c-4.056,1.055-8.313,1.613-12.7,1.613s-8.645-0.557-12.7-1.613
		c-9.652-2.478-18.19-7.743-24.712-14.882c-8.242-9.012-13.281-21.025-13.281-34.199v-15.119c4.565,1.577,9.19,2.929,13.851,4.055
		c5.478,1.34,11.016,2.372,16.59,3.083c6.724,0.901,13.495,1.34,20.254,1.34c6.759,0,13.53-0.439,20.254-1.34
		c5.573-0.712,11.111-1.743,16.59-3.083C264.85,281.406,269.475,280.054,274.04,278.477z"/>
	<g>
		<path style="fill:#E6E6E6;" d="M203.092,285.616l-3.522,12.155l-1.764,6.091c-1.247,4.304-7.474,3.895-8.147-0.535l-1.164-7.666
			l-0.486-3.202l-1.506-9.926C191.981,283.873,197.519,284.904,203.092,285.616z"/>
		<path style="fill:#E6E6E6;" d="M260.19,282.532l-1.506,9.926l-0.486,3.202l-1.164,7.666c-0.673,4.43-6.9,4.839-8.147,0.535
			l-1.764-6.091l-3.522-12.155C249.174,284.904,254.711,283.873,260.19,282.532z"/>
	</g>
	<path style="fill:#41996B;" d="M116.333,145.417c0,0,0.85,0.19,2.445,0.545c1.581,0.389,3.923,0.902,6.859,1.666
		c1.476,0.354,3.09,0.83,4.864,1.243c1.767,0.385,3.677,0.802,5.719,1.247c2.034,0.441,4.172,0.962,6.427,1.479
		c2.27,0.483,4.695,0.912,7.195,1.401c2.51,0.459,5.082,1.071,7.786,1.523c2.702,0.433,5.495,0.882,8.366,1.342
		c1.429,0.239,2.877,0.48,4.344,0.725c1.477,0.181,2.971,0.364,4.482,0.548c3.024,0.338,6.083,0.829,9.214,1.181
		c3.146,0.245,6.331,0.554,9.552,0.867c3.215,0.378,6.498,0.427,9.787,0.653c6.581,0.496,13.284,0.457,19.976,0.626
		c6.693-0.171,13.394-0.142,19.975-0.637c3.29-0.224,6.572-0.286,9.787-0.658c3.222-0.307,6.405-0.627,9.551-0.87
		c3.131-0.347,6.189-0.846,9.213-1.183c1.511-0.184,3.005-0.367,4.482-0.547c1.466-0.245,2.914-0.488,4.343-0.728
		c2.871-0.46,5.664-0.908,8.366-1.341c2.703-0.452,5.277-1.059,7.785-1.522c2.502-0.489,4.921-0.912,7.199-1.401
		c2.274-0.524,4.432-1.021,6.459-1.488c2.041-0.444,3.947-0.886,5.731-1.25c1.767-0.408,3.36-0.877,4.83-1.227
		c2.918-0.755,5.259-1.266,6.842-1.653c1.599-0.356,2.452-0.546,2.452-0.546s-0.742,0.452-2.134,1.3
		c-1.407,0.816-3.453,2.07-6.117,3.562c-1.33,0.751-2.8,1.6-4.435,2.443c-1.646,0.816-3.449,1.649-5.371,2.567
		c-1.936,0.895-3.996,1.849-6.167,2.853c-2.192,0.961-4.558,1.794-7.003,2.763c-2.459,0.923-5.016,1.925-7.703,2.835
		c-2.715,0.827-5.521,1.683-8.406,2.562c-1.446,0.44-2.915,0.877-4.411,1.285c-1.508,0.356-3.034,0.716-4.578,1.08
		c-3.088,0.733-6.257,1.444-9.491,2.112c-3.25,0.573-6.569,1.082-9.929,1.614c-3.352,0.62-6.788,0.865-10.243,1.199
		c-6.904,0.841-13.971,0.851-21.025,1.099c-7.054-0.25-14.12-0.269-21.024-1.109c-3.456-0.333-6.89-0.591-10.242-1.204
		c-3.361-0.526-6.678-1.047-9.928-1.617c-3.235-0.663-6.402-1.383-9.49-2.114c-1.543-0.364-3.07-0.723-4.578-1.079
		c-1.496-0.404-2.964-0.849-4.41-1.287c-2.891-0.882-5.704-1.707-8.406-2.562c-2.687-0.91-5.245-1.907-7.703-2.833
		c-2.447-0.969-4.808-1.796-7.008-2.762c-2.191-1.011-4.27-1.94-6.199-2.861c-1.93-0.919-3.736-1.754-5.383-2.57
		c-1.628-0.839-3.077-1.68-4.401-2.427c-2.647-1.482-4.691-2.734-6.101-3.549C117.078,145.869,116.333,145.417,116.333,145.417z"/>
	<path style="fill:#41996B;" d="M132.411,104.578c0,0,0.723,0.161,2.077,0.463c1.344,0.33,3.334,0.766,5.828,1.416
		c1.254,0.301,2.626,0.706,4.133,1.057c1.501,0.327,3.125,0.681,4.859,1.06c1.729,0.375,3.546,0.817,5.462,1.257
		c1.929,0.411,3.99,0.775,6.114,1.191c2.133,0.39,4.319,0.91,6.616,1.295c2.296,0.368,4.669,0.749,7.109,1.141
		c1.214,0.203,2.445,0.408,3.691,0.616c1.255,0.154,2.525,0.309,3.809,0.466c2.57,0.288,5.169,0.704,7.829,1.003
		c2.673,0.208,5.38,0.471,8.117,0.737c2.732,0.322,5.521,0.363,8.317,0.555c5.592,0.421,11.288,0.388,16.975,0.532
		c5.687-0.145,11.382-0.12,16.974-0.541c2.796-0.19,5.584-0.243,8.316-0.559c2.738-0.261,5.443-0.533,8.116-0.74
		c2.66-0.295,5.259-0.719,7.828-1.005c1.284-0.157,2.554-0.311,3.809-0.465c1.246-0.209,2.476-0.415,3.69-0.618
		c2.44-0.391,4.813-0.772,7.109-1.14c2.297-0.384,4.484-0.9,6.616-1.293c2.126-0.416,4.181-0.775,6.118-1.19
		c1.933-0.445,3.766-0.867,5.489-1.264c1.734-0.377,3.354-0.753,4.87-1.062c1.502-0.347,2.855-0.745,4.104-1.042
		c2.48-0.641,4.469-1.076,5.814-1.405c1.359-0.302,2.083-0.464,2.083-0.464s-0.631,0.384-1.813,1.104
		c-1.196,0.694-2.934,1.759-5.198,3.027c-1.13,0.638-2.379,1.359-3.769,2.076c-1.399,0.694-2.931,1.401-4.564,2.181
		c-1.645,0.761-3.395,1.571-5.241,2.424c-1.863,0.817-3.873,1.525-5.951,2.348c-2.089,0.784-4.263,1.636-6.546,2.409
		c-2.307,0.703-4.692,1.43-7.143,2.177c-1.229,0.374-2.477,0.745-3.748,1.092c-1.281,0.302-2.579,0.608-3.89,0.918
		c-2.624,0.623-5.317,1.227-8.065,1.795c-2.761,0.487-5.582,0.919-8.437,1.371c-2.848,0.526-5.768,0.735-8.704,1.019
		c-5.867,0.714-11.872,0.723-17.866,0.934c-5.994-0.212-11.999-0.229-17.866-0.942c-2.937-0.283-5.855-0.503-8.704-1.023
		c-2.856-0.447-5.675-0.889-8.436-1.374c-2.749-0.563-5.44-1.175-8.064-1.796c-1.311-0.309-2.608-0.615-3.89-0.917
		c-1.272-0.344-2.519-0.722-3.748-1.094c-2.456-0.749-4.847-1.45-7.143-2.177c-2.283-0.773-4.457-1.621-6.546-2.408
		c-2.08-0.824-4.086-1.526-5.955-2.347c-1.862-0.859-3.628-1.648-5.268-2.431c-1.64-0.781-3.175-1.491-4.575-2.184
		c-1.384-0.713-2.615-1.428-3.74-2.062c-2.249-1.259-3.987-2.323-5.184-3.016C133.044,104.962,132.411,104.578,132.411,104.578z"/>
	<path style="fill:#FFFFFF;" d="M188.495,295.66c3.676,0.842,7.364,1.553,11.076,2.111l-2.402,8.293
		c-1.097,3.785-6.573,3.425-7.165-0.471L188.495,295.66z"/>
	<path style="fill:#FFFFFF;" d="M258.198,295.66l-1.509,9.933c-0.592,3.896-6.068,4.256-7.165,0.471l-2.402-8.293
		C250.834,297.213,254.521,296.501,258.198,295.66z"/>
</g>
<g>
</g>
<g>
</g>
<g>
</g>
<g>
</g>
<g>
</g>
<g>
</g>
<g>
</g>
<g>
</g>
<g>
</g>
<g>
</g>
<g>
</g>
<g>
</g>
<g>
</g>
<g>
</g>
<g>
</g>
</svg>
